<?xml version="1.0" standalone="no"?>
<!DOCTYPE svg PUBLIC "-//W3C//DTD SVG 20010904//EN"
 "http://www.w3.org/TR/2001/REC-SVG-20010904/DTD/svg10.dtd">
<svg version="1.0" xmlns="http://www.w3.org/2000/svg"
 width="512.000000pt" height="512.000000pt" viewBox="0 0 512.000000 512.000000"
 preserveAspectRatio="xMidYMid meet">

<g transform="translate(0.000000,512.000000) scale(0.100000,-0.100000)"
fill="#000000" stroke="none">
<path d="M3968 5030 c-316 -37 -806 -190 -1230 -383 l-78 -36 30 -63 c21 -44
36 -63 48 -61 9 1 89 33 177 71 335 146 686 258 965 308 136 24 366 25 443 1
153 -47 180 -159 82 -352 -241 -480 -1151 -1197 -2170 -1712 -93 -47 -171 -87
-173 -88 -1 -1 11 -32 28 -68 l30 -66 82 39 c46 21 151 74 234 118 1013 534
1861 1225 2109 1719 l43 85 82 -144 c46 -79 105 -181 133 -228 59 -100 69
-136 56 -204 -12 -68 -85 -215 -154 -309 -31 -42 -54 -81 -51 -86 4 -5 28 -28
56 -51 l49 -41 64 86 c75 101 137 214 167 305 28 81 30 197 6 255 -37 88 -433
761 -470 798 -94 96 -303 136 -558 107z"/>
<path d="M2320 4444 c-513 -266 -1038 -609 -1438 -941 -169 -140 -473 -448
-568 -575 -141 -189 -206 -336 -207 -469 -1 -65 4 -84 30 -140 48 -98 42 -95
111 -54 34 20 62 39 62 43 0 4 -10 23 -22 42 -49 81 -42 156 26 295 25 50 80
138 122 195 94 126 360 395 534 540 409 340 951 693 1468 955 l151 77 -32 64
c-17 35 -36 64 -42 64 -5 0 -93 -43 -195 -96z"/>
<path d="M3645 4156 c-762 -272 -1616 -751 -2274 -1275 l-25 -19 43 -56 c24
-31 47 -56 51 -56 5 0 32 19 62 43 467 377 1201 811 1802 1067 160 68 430 171
489 185 15 4 27 13 27 19 0 20 -41 136 -48 135 -4 0 -61 -19 -127 -43z"/>
<path d="M4204 3651 c-45 -43 -137 -124 -205 -180 -68 -57 -128 -109 -133
-115 -6 -8 6 -31 35 -68 l43 -56 59 46 c136 107 387 333 387 349 0 9 -92 103
-100 103 -3 -1 -42 -36 -86 -79z"/>
<path d="M4405 3322 c-207 -202 -500 -440 -752 -610 -34 -23 -64 -46 -67 -50
-6 -10 65 -122 77 -122 12 0 276 189 408 292 173 135 305 251 451 395 l138
136 -53 48 c-28 27 -54 48 -57 48 -3 0 -68 -61 -145 -137z"/>
<path d="M3679 3219 c-30 -22 -55 -43 -57 -47 -1 -5 16 -34 38 -65 28 -38 45
-55 54 -50 34 21 106 77 106 83 0 4 -19 31 -43 62 l-43 56 -55 -39z"/>
<path d="M3427 3039 l-57 -40 40 -60 c23 -32 43 -59 46 -59 3 0 32 18 65 40
l59 41 -42 59 c-23 33 -45 60 -48 60 -4 0 -32 -18 -63 -41z"/>
<path d="M1170 2712 l-54 -49 48 -57 49 -56 50 43 c28 24 52 48 54 53 2 6 -18
33 -44 62 l-48 53 -55 -49z"/>
<path d="M2115 2424 c-22 -2 -110 -8 -195 -14 -326 -23 -919 -110 -953 -140
-9 -8 9 -108 23 -130 6 -9 46 -5 161 19 188 37 460 74 719 98 279 26 1122 25
1390 0 446 -43 820 -108 1079 -187 35 -11 69 -20 75 -20 7 0 20 26 30 58 10
31 20 62 23 68 8 22 -345 112 -622 158 -425 71 -652 88 -1215 91 -261 2 -493
1 -515 -1z"/>
<path d="M640 2181 c-330 -111 -536 -245 -611 -398 -24 -48 -24 -48 -27 -502
-3 -514 -3 -517 71 -618 134 -181 499 -342 1018 -447 142 -29 498 -86 506 -81
1 0 6 33 11 73 8 69 7 73 -12 77 -12 2 -88 14 -171 25 -541 76 -1002 230
-1182 394 -93 85 -93 83 -93 401 l0 277 37 -29 c431 -335 1727 -534 2933 -453
837 57 1524 228 1813 453 l37 29 0 -277 c0 -251 -2 -279 -19 -313 -130 -254
-864 -474 -1806 -542 -371 -26 -945 -22 -1280 10 -49 4 -93 5 -96 2 -4 -4 -9
-37 -13 -74 l-6 -67 42 -5 c216 -29 816 -43 1143 -27 1168 58 1986 300 2151
637 l29 59 0 475 0 475 -24 48 c-33 68 -119 157 -204 213 -66 44 -245 134
-265 134 -8 0 -65 -131 -59 -135 1 -1 49 -24 107 -52 174 -83 280 -176 296
-260 20 -107 -110 -232 -348 -335 -345 -149 -869 -253 -1513 -300 -219 -15
-871 -15 -1090 0 -546 40 -992 117 -1336 232 -351 118 -550 271 -525 404 22
118 234 257 552 361 l141 47 -20 69 c-11 38 -25 69 -31 69 -6 0 -76 -22 -156
-49z"/>
<path d="M1685 2089 c-155 -18 -370 -51 -376 -58 -4 -3 -2 -37 4 -75 l11 -68
40 6 c63 9 426 56 435 56 4 0 6 15 4 33 -13 111 -14 117 -31 116 -9 -1 -48 -5
-87 -10z"/>
<path d="M1077 1990 c-37 -9 -68 -18 -69 -20 -1 -3 5 -36 12 -73 l14 -68 35 6
c62 11 111 26 111 33 -1 16 -28 133 -31 136 -2 1 -35 -5 -72 -14z"/>
<path d="M2135 1623 c-305 -18 -523 -39 -755 -74 -144 -22 -340 -58 -351 -65
-6 -3 17 -133 25 -142 3 -2 51 6 108 17 201 41 448 73 778 103 194 17 1041 18
1240 0 305 -26 543 -58 754 -98 70 -14 130 -24 132 -21 2 2 10 34 18 71 10 50
11 69 2 72 -31 11 -220 45 -376 68 -395 57 -711 77 -1184 74 -187 -1 -363 -3
-391 -5z"/>
<path d="M2180 565 l0 -75 75 0 75 0 0 75 0 75 -75 0 -75 0 0 -75z"/>
<path d="M2482 568 l3 -73 75 0 75 0 3 73 3 72 -81 0 -81 0 3 -72z"/>
<path d="M2790 565 l0 -75 75 0 75 0 0 75 0 75 -75 0 -75 0 0 -75z"/>
</g>
</svg>
