<?xml version="1.0" standalone="no"?>
<!DOCTYPE svg PUBLIC "-//W3C//DTD SVG 20010904//EN"
 "http://www.w3.org/TR/2001/REC-SVG-20010904/DTD/svg10.dtd">
<svg version="1.0" xmlns="http://www.w3.org/2000/svg"
 width="512.000000pt" height="512.000000pt" viewBox="0 0 512.000000 512.000000"
 preserveAspectRatio="xMidYMid meet">

<g transform="translate(0.000000,512.000000) scale(0.100000,-0.100000)"
fill="#000000" stroke="none">
<path d="M3747 5110 c-174 -44 -307 -210 -307 -383 0 -63 39 -107 94 -107 56
0 94 41 106 113 12 75 35 114 89 152 37 26 51 30 109 30 80 0 129 -25 170 -88
23 -34 27 -52 27 -108 0 -90 -31 -136 -130 -191 -116 -64 -165 -139 -165 -254
l0 -53 -44 -20 c-180 -79 -251 -319 -145 -486 l30 -47 -46 -49 c-120 -129
-148 -316 -69 -473 28 -57 101 -136 154 -168 19 -12 36 -23 38 -24 2 -1 -136
-178 -306 -392 -171 -214 -326 -412 -346 -440 -53 -73 -122 -226 -146 -322
-28 -109 -37 -295 -20 -397 65 -406 352 -724 750 -831 132 -35 351 -37 484 -4
192 48 334 129 477 271 142 143 223 285 271 477 33 133 31 351 -5 486 -30 114
-87 239 -148 324 -24 34 -179 231 -344 438 -165 208 -301 381 -303 384 -1 4
14 16 33 26 19 11 58 43 86 73 153 161 155 411 5 571 l-46 49 38 73 c34 66 37
80 37 154 0 72 -4 89 -33 148 -36 74 -91 129 -159 160 -41 18 -43 21 -43 63 0
51 13 66 75 94 24 11 67 41 94 66 258 242 104 674 -247 691 -42 2 -94 -1 -115
-6z m163 -1097 c35 -20 70 -81 70 -120 0 -100 -116 -167 -208 -119 -89 46 -94
185 -8 237 39 24 108 25 146 2z m52 -498 c53 -37 98 -120 98 -179 0 -46 -30
-119 -63 -154 -81 -88 -234 -85 -319 5 -99 104 -64 284 66 345 63 29 162 21
218 -17z m15 -833 c72 -92 224 -284 338 -427 270 -340 317 -433 332 -655 15
-234 -72 -458 -242 -625 -149 -146 -312 -218 -525 -232 -326 -20 -631 165
-774 468 -58 123 -71 185 -71 349 1 137 2 150 34 241 18 53 49 124 69 157 36
58 692 892 702 892 3 -1 64 -76 137 -168z"/>
<path d="M3800 2397 c-36 -18 -435 -520 -470 -592 -111 -227 -69 -476 110
-655 180 -180 438 -220 663 -103 272 141 382 478 247 756 -40 80 -440 584
-476 597 -33 13 -44 12 -74 -3z m193 -444 c167 -210 179 -229 201 -302 56
-192 -59 -399 -253 -455 -193 -56 -401 59 -457 252 -23 77 -15 181 18 253 26
56 325 442 339 437 4 -2 73 -85 152 -185z"/>
<path d="M1186 4570 c-63 -16 -153 -70 -197 -117 -80 -87 -129 -242 -99 -313
13 -33 55 -60 90 -60 59 0 92 41 105 130 13 95 82 158 182 167 48 4 66 1 103
-19 60 -33 101 -93 108 -156 9 -93 -32 -164 -122 -209 -117 -59 -165 -127
-174 -245 l-5 -68 -41 -19 c-67 -30 -122 -86 -158 -159 -29 -59 -33 -76 -33
-148 0 -74 3 -88 37 -154 l38 -73 -46 -49 c-117 -125 -145 -318 -68 -470 31
-61 110 -147 159 -174 19 -10 34 -22 33 -26 -2 -4 -140 -179 -308 -390 -340
-428 -392 -500 -439 -611 -59 -143 -75 -225 -75 -392 0 -123 4 -166 22 -239
47 -189 129 -333 267 -472 140 -142 291 -228 485 -277 160 -40 465 -23 546 30
46 30 55 112 16 146 -42 37 -58 38 -161 17 -117 -24 -212 -25 -313 -6 -263 52
-472 210 -583 441 -66 139 -79 198 -79 355 0 255 41 342 329 705 114 143 266
335 338 427 73 92 135 166 139 165 3 -1 155 -189 337 -417 421 -528 456 -591
468 -845 4 -80 1 -131 -11 -185 -29 -134 -18 -178 48 -200 27 -9 42 -8 71 4
44 19 59 51 80 172 37 213 4 438 -95 634 -44 89 -60 110 -412 552 -170 214
-308 391 -306 392 2 1 19 12 38 24 53 32 126 111 154 168 79 157 51 344 -69
473 l-46 49 25 39 c112 172 44 413 -140 494 -42 19 -44 22 -44 63 0 49 9 59
88 101 68 37 146 120 179 192 92 200 -16 458 -224 537 -57 21 -182 29 -237 16z
m170 -1099 c86 -52 81 -191 -8 -237 -92 -48 -208 20 -208 121 0 36 35 97 68
118 37 22 109 22 148 -2z m20 -480 c22 -10 55 -36 72 -57 120 -145 20 -356
-168 -356 -124 0 -220 98 -220 223 0 75 66 168 140 198 41 16 131 12 176 -8z"/>
<path d="M1244 1860 c-25 -10 -33 -20 -268 -315 -181 -228 -226 -300 -251
-408 -60 -252 70 -522 305 -635 231 -111 471 -71 650 108 179 179 221 428 110
655 -25 53 -411 549 -452 582 -21 18 -69 24 -94 13z m196 -452 c84 -106 164
-218 178 -247 51 -111 39 -255 -31 -357 -67 -97 -193 -164 -308 -164 -62 0
-159 32 -216 71 -139 96 -192 304 -116 455 26 52 320 434 334 434 3 0 75 -87
159 -192z"/>
<path d="M1883 455 c-39 -17 -53 -42 -53 -93 0 -81 95 -120 159 -66 25 21 31
33 31 66 0 52 -14 77 -55 94 -41 17 -42 17 -82 -1z"/>
</g>
</svg>
