<svg xmlns="http://www.w3.org/2000/svg" width="49" height="48" viewBox="0 0 49 48">
  <g id="Group_28" data-name="Group 28" transform="translate(-1059 -7648)">
    <g id="Ellipse_12" data-name="Ellipse 12" transform="translate(1059 7648)" fill="#fff" stroke="#707070" stroke-width="1" opacity="0.5">
      <ellipse cx="24.5" cy="24" rx="24.5" ry="24" stroke="none"/>
      <ellipse cx="24.5" cy="24" rx="24" ry="23.5" fill="none"/>
    </g>
    <g id="Icon_feather-linkedin" data-name="Icon feather-linkedin" transform="translate(1072.928 7657.682)">
      <path id="Path_15" data-name="Path 15" d="M21.043,12a6.043,6.043,0,0,1,6.043,6.043v7.05H23.057v-7.05a2.014,2.014,0,0,0-4.029,0v7.05H15v-7.05A6.043,6.043,0,0,1,21.043,12Z" transform="translate(-3.943 -2.957)" fill="none" stroke="#000" stroke-linecap="round" stroke-linejoin="round" stroke-width="1"/>
      <path id="Path_16" data-name="Path 16" d="M3,13.5H7.029V25.586H3Z" transform="translate(0 -3.45)" fill="none" stroke="#000" stroke-linecap="round" stroke-linejoin="round" stroke-width="1"/>
      <path id="Path_17" data-name="Path 17" d="M7.029,5.014A2.014,2.014,0,1,1,5.014,3,2.014,2.014,0,0,1,7.029,5.014Z" fill="none" stroke="#000" stroke-linecap="round" stroke-linejoin="round" stroke-width="1"/>
    </g>
  </g>
</svg>
