<svg xmlns="http://www.w3.org/2000/svg" width="48" height="48" viewBox="0 0 48 48">
  <g id="Group_26" data-name="Group 26" transform="translate(-895 -7648)">
    <g id="Ellipse_10" data-name="Ellipse 10" transform="translate(895 7648)" fill="#fff" stroke="#707070" stroke-width="1" opacity="0.5">
      <circle cx="24" cy="24" r="24" stroke="none"/>
      <circle cx="24" cy="24" r="23.5" fill="none"/>
    </g>
    <g id="Group_16" data-name="Group 16" transform="translate(5.205 -54.495)">
      <g id="Icon_feather-instagram" data-name="Icon feather-instagram" transform="translate(902.8 7715.5)">
        <path id="Path_12" data-name="Path 12" d="M8.5,3h11a5.5,5.5,0,0,1,5.5,5.5v11a5.5,5.5,0,0,1-5.5,5.5H8.5a5.5,5.5,0,0,1-5.5-5.5V8.5A5.5,5.5,0,0,1,8.5,3Z" transform="translate(-3 -3)" fill="none" stroke="#000" stroke-linecap="round" stroke-linejoin="round" stroke-width="1"/>
        <path id="Path_13" data-name="Path 13" d="M20.813,15.688a4.4,4.4,0,1,1-3.705-3.705,4.4,4.4,0,0,1,3.705,3.705Z" transform="translate(-5.42 -5.386)" fill="none" stroke="#000" stroke-linecap="round" stroke-linejoin="round" stroke-width="1"/>
        <path id="Path_14" data-name="Path 14" d="M26.25,9.75h0" transform="translate(-9.208 -4.802)" fill="none" stroke="#000" stroke-linecap="round" stroke-linejoin="round" stroke-width="1"/>
      </g>
    </g>
  </g>
</svg>
