<?xml version="1.0" standalone="no"?>
<!DOCTYPE svg PUBLIC "-//W3C//DTD SVG 20010904//EN"
 "http://www.w3.org/TR/2001/REC-SVG-20010904/DTD/svg10.dtd">
<svg version="1.0" xmlns="http://www.w3.org/2000/svg"
 width="512.000000pt" height="512.000000pt" viewBox="0 0 512.000000 512.000000"
 preserveAspectRatio="xMidYMid meet">

<g transform="translate(0.000000,512.000000) scale(0.100000,-0.100000)"
fill="#000000" stroke="none">
<path d="M19 5099 c-21 -21 -22 -27 -15 -193 12 -319 54 -621 126 -907 l38
-154 -53 -48 c-78 -70 -110 -140 -110 -242 0 -71 4 -88 33 -148 57 -115 163
-179 295 -179 l62 0 67 -138 66 -138 -29 -28 c-16 -16 -42 -53 -57 -84 -23
-47 -27 -68 -27 -140 0 -73 4 -93 28 -142 67 -137 232 -213 377 -174 45 12 56
12 62 1 4 -7 39 -53 78 -103 38 -50 70 -95 70 -99 0 -4 -13 -34 -29 -65 -56
-111 -50 -223 19 -325 72 -107 202 -165 320 -145 32 6 76 20 97 30 l38 20 71
-67 c39 -37 113 -103 165 -146 l94 -78 6 -381 c5 -321 8 -392 24 -451 91 -355
411 -595 765 -572 203 14 365 90 501 235 78 83 123 158 161 265 39 110 47 212
48 587 l0 315 83 66 c45 37 120 103 167 147 l86 80 38 -20 c142 -73 323 -23
416 115 70 103 75 207 18 326 -20 42 -28 69 -22 77 77 112 151 202 164 197
231 -79 466 96 447 334 -5 72 -41 154 -86 197 l-29 28 66 138 67 138 60 0 c80
0 133 15 192 55 175 120 189 371 28 514 l-53 48 28 112 c82 317 140 745 140
1041 0 69 -3 85 -20 102 -28 28 -64 25 -89 -6 -18 -23 -21 -41 -21 -124 0
-278 -61 -714 -141 -1011 l-20 -76 -67 -5 c-84 -6 -153 -40 -211 -103 -64 -69
-85 -124 -85 -220 0 -99 28 -168 97 -234 l46 -44 -63 -126 -63 -125 -94 -1
c-82 0 -101 -4 -151 -28 -68 -33 -121 -90 -156 -166 -21 -45 -26 -71 -26 -131
0 -80 15 -126 61 -192 l26 -38 -79 -104 -78 -103 -55 19 c-154 55 -329 -21
-399 -172 -45 -95 -41 -190 12 -312 6 -12 -22 -42 -116 -127 -68 -61 -125
-111 -128 -111 -3 0 -13 30 -23 67 -53 203 -200 380 -392 473 -118 57 -190 73
-325 73 -135 0 -207 -16 -325 -73 -191 -93 -337 -268 -391 -470 -10 -36 -19
-67 -21 -69 -3 -4 -103 82 -197 170 l-59 56 23 48 c55 115 31 262 -59 358 -91
97 -222 132 -342 89 l-55 -19 -78 103 -79 104 26 38 c46 66 61 112 61 192 0
60 -5 86 -26 131 -35 76 -88 133 -156 166 -50 24 -69 28 -151 28 l-94 1 -62
124 -63 125 44 43 c23 24 56 69 71 100 36 74 39 191 6 264 -50 111 -158 187
-275 196 l-66 5 -21 76 c-78 279 -141 735 -141 1011 0 83 -3 101 -21 124 -25
32 -61 34 -90 5z m428 -1385 c104 -83 109 -224 10 -311 -70 -61 -157 -66 -240
-13 -107 67 -117 221 -20 312 41 39 70 48 145 45 57 -2 72 -7 105 -33z m4420
25 c68 -25 123 -109 123 -185 0 -170 -200 -263 -327 -151 -111 98 -90 263 42
331 35 18 121 21 162 5z m-4037 -861 c61 -31 102 -92 108 -160 3 -44 -1 -62
-25 -108 -23 -44 -39 -60 -83 -83 -47 -25 -63 -28 -109 -23 -104 10 -181 94
-181 199 0 148 156 242 290 175z m3638 3 c178 -91 133 -354 -65 -378 -44 -5
-61 -1 -106 20 -82 41 -124 115 -114 204 14 130 169 213 285 154z m-3071 -737
c15 -11 41 -37 57 -58 28 -35 31 -44 31 -111 0 -65 -3 -78 -30 -116 -71 -100
-201 -116 -292 -36 -108 95 -90 259 36 327 49 27 158 24 198 -6z m2522 6 c128
-65 147 -231 38 -327 -91 -79 -221 -64 -291 35 -34 48 -45 128 -27 184 13 38
60 89 106 112 42 22 127 20 174 -4z m-1234 -115 c74 -16 193 -68 235 -103 l25
-21 -105 -106 -106 -106 -49 23 c-38 16 -69 22 -125 22 -56 0 -87 -6 -125 -22
l-49 -23 -106 106 -105 106 25 21 c40 34 161 87 231 102 84 19 168 19 254 1z
m-501 -324 l99 -99 -21 -34 c-37 -60 -52 -142 -52 -290 l0 -138 -135 0 -135 0
0 158 c1 184 16 281 58 375 32 70 68 127 80 127 4 0 52 -45 106 -99z m892 57
c79 -125 103 -232 104 -460 l0 -158 -135 0 -135 0 0 138 c0 148 -15 230 -52
290 l-21 34 99 99 c54 54 102 99 106 99 4 0 20 -19 34 -42z m-453 -159 c49
-13 115 -73 138 -124 17 -36 19 -73 19 -396 l0 -357 -28 -53 c-40 -77 -102
-114 -192 -114 -90 0 -152 37 -192 114 l-28 53 0 357 c0 398 1 401 73 469 58
55 131 73 210 51z m-411 -751 c3 -161 4 -164 37 -232 l33 -69 -101 -101 c-116
-116 -103 -118 -171 19 -53 104 -69 197 -70 393 l0 152 134 0 134 0 4 -162z
m968 10 c-1 -196 -17 -289 -70 -393 -68 -137 -55 -135 -172 -18 l-102 102 27
53 c38 76 46 126 47 276 l0 132 135 0 135 0 0 -152z m-620 -432 c65 0 96 5
131 21 l47 21 106 -107 106 -106 -50 -33 c-208 -136 -472 -136 -680 0 l-50 33
106 106 106 107 47 -21 c35 -16 66 -21 131 -21z"/>
</g>
</svg>
